<?xml version="1.0" encoding="UTF-8"?><svg id="Layer_2" xmlns="http://www.w3.org/2000/svg" viewBox="0 0 408 117.8701"><g id="Components"><g id="_3cf072e5-6507-4646-a76f-9c2e9cf2e556_1"><path d="M141,77.29c-5.47,0-9.91-4.4302-9.91-9.9102V0h-15.99v68.74c0,13.04,10.57,23.5999,23.61,23.5999h33.37v-15.0498h-31.08Z" style="fill:#1d1d1d; stroke-width:0px;"/><path d="M211.18,22.2c-20.97,0-36.69,15.45-36.69,35.8801,0,20.4199,15.72,35.8799,36.69,35.8799,20.82,0,36.68-15.46,36.68-35.8799,0-20.4302-15.86-35.8801-36.68-35.8801ZM211.18,79.4399c-12.1,0-21.24-9.27-21.24-21.3599,0-12.1001,9.14-21.3701,21.24-21.3701,12.09,0,21.09,9.27,21.09,21.3701,0,12.0898-9,21.3599-21.09,21.3599Z" style="fill:#1d1d1d; stroke-width:0px;"/><path d="M290.63,22.2c-20.97,0-36.68,15.46-36.68,35.8701,0,20.4299,15.71,35.8799,36.68,35.8799,20.83,0,36.68-15.45,36.68-35.8799,0-20.4102-15.85-35.8701-36.68-35.8701ZM290.63,79.45c-12.09,0-21.23-9.28-21.23-21.3799,0-12.0901,9.14-21.3501,21.23-21.3501,12.1,0,21.1,9.26,21.1,21.3501,0,12.0999-9,21.3799-21.1,21.3799Z" style="fill:#1d1d1d; stroke-width:0px;"/><path d="M374.27,22.2c-6.33,0-11.98,1.6902-16.73,4.72-5.42,3.46-12.34,3.52-17.73.01l-4.78-3.1199v94.0601h15.05v-35.3301c5.78,7.1099,14.12,11.4099,24.19,11.4099,19.22,0,33.73-15.45,33.73-35.8799,0-20.4102-14.51-35.8701-33.73-35.8701ZM371.31,79.45c-12.09,0-21.23-9.28-21.23-21.3799,0-12.0901,9.14-21.3501,21.23-21.3501s21.11,9.26,21.11,21.3501c0,12.0999-9.02,21.3799-21.11,21.3799Z" style="fill:#1d1d1d; stroke-width:0px;"/><rect y=".0046" width="18.2845" height="91.9991" style="fill:#018257; stroke-width:0px;"/><path d="M91.8764,73.7067v18.297h-55.3074c-5.0525,0-9.6266-2.0482-12.9377-5.3589-3.2988-3.3113-5.3468-7.8855-5.3468-12.9381h73.5919Z" style="fill:#018257; stroke-width:0px;"/><rect x="30.6582" y=".0046" width="18.2845" height="61.3409" style="fill:#018257; stroke-width:0px;"/><path d="M48.9427,43.0485h42.9337v18.297h-24.6492c-5.0525,0-9.6266-2.0482-12.9377-5.3589-3.2988-3.3113-5.3468-7.8855-5.3468-12.9381Z" style="fill:#018257; stroke-width:0px;"/></g></g></svg>